<?xml version="1.0" encoding="utf-8"?>
<!-- Generator: Adobe Illustrator 21.1.0, SVG Export Plug-In . SVG Version: 6.00 Build 0)  -->
<svg version="1.1" id="Capa_1" xmlns="http://www.w3.org/2000/svg" xmlns:xlink="http://www.w3.org/1999/xlink" x="0px" y="0px"
	 viewBox="0 0 466 466" style="enable-background:new 0 0 466 466;" xml:space="preserve">
<style type="text/css">
	.st0{fill:#FFFFFF;}
</style>
<g>
	<path class="st0" d="M442,284.4L382.6,225c-16-16-35.4-24-58.2-24c-23.2,0-43,8.4-59.4,25.1L239.8,201
		c16.8-16.4,25.1-36.3,25.1-59.7c0-22.8-7.9-42.2-23.7-58l-58.8-59.1C166.6,8.1,147.2,0,124.2,0c-22.8,0-42.2,7.9-58,23.7l-42,41.7
		C8.1,81.2,0,100.5,0,123.3c0,22.8,8,42.3,24,58.2L83.4,241c16,16,35.4,24,58.2,24c23.2,0,43-8.4,59.4-25.1l25.1,25.1
		c-16.8,16.4-25.1,36.3-25.1,59.7c0,22.8,7.9,42.2,23.7,58l58.8,59.1c15.8,16.2,35.2,24.3,58.2,24.3c22.8,0,42.2-7.9,58-23.7
		l42-41.7c16.2-15.8,24.3-35.1,24.3-58C465.9,319.8,458,300.4,442,284.4z M201,162.2c-0.6-0.6-2.3-2.4-5.3-5.4c-2.9-3-5-5.1-6.1-6.1
		c-1.1-1-3-2.5-5.4-4.3c-2.5-1.8-4.9-3-7.3-3.7c-2.4-0.7-5-1-7.9-1c-7.6,0-14.1,2.7-19.4,8s-8,11.8-8,19.4c0,2.9,0.3,5.5,1,7.9
		c0.7,2.4,1.9,4.8,3.7,7.3c1.8,2.5,3.2,4.3,4.3,5.4c1,1.1,3.1,3.2,6.1,6.1c3,2.9,4.9,4.7,5.4,5.3c-5.7,5.9-12.6,8.8-20.6,8.8
		c-7.8,0-14.3-2.6-19.4-7.7l-59.4-59.4c-5.3-5.3-8-11.8-8-19.4c0-7.4,2.7-13.8,8-19.1l42-41.7c5.5-5.1,12-7.7,19.4-7.7
		c7.6,0,14.1,2.7,19.4,8l58.8,59.1c5.3,5.3,8,11.8,8,19.4C210.4,149.3,207.3,156.3,201,162.2z M403.1,361.7l-42,41.7
		c-5.3,4.9-11.8,7.4-19.4,7.4c-7.8,0-14.3-2.6-19.4-7.7L263.5,344c-5.3-5.3-8-11.8-8-19.4c0-8,3.1-14.9,9.4-20.8
		c0.6,0.6,2.3,2.4,5.3,5.4c3,3,5,5.1,6.1,6.1c1.1,1.1,2.9,2.5,5.4,4.3c2.5,1.8,4.9,3,7.3,3.7c2.4,0.7,5,1,7.9,1
		c7.6,0,14.1-2.7,19.4-8c5.3-5.3,8-11.8,8-19.4c0-2.9-0.3-5.5-1-7.9c-0.7-2.4-1.9-4.8-3.7-7.3c-1.8-2.5-3.2-4.3-4.3-5.4
		c-1-1.1-3.1-3.2-6.1-6.1c-3-2.9-4.9-4.7-5.4-5.3c5.7-6.1,12.6-9.1,20.6-9.1c7.6,0,14.1,2.7,19.4,8l59.4,59.4c5.3,5.3,8,11.8,8,19.4
		C411.1,350,408.5,356.4,403.1,361.7z"/>
</g>
</svg>
