<?xml version="1.0" encoding="utf-8"?>
<!-- Generator: Adobe Illustrator 21.1.0, SVG Export Plug-In . SVG Version: 6.00 Build 0)  -->
<svg version="1.1" id="Capa_1" xmlns="http://www.w3.org/2000/svg" xmlns:xlink="http://www.w3.org/1999/xlink" x="0px" y="0px"
	 viewBox="0 0 470.6 470.6" style="enable-background:new 0 0 470.6 470.6;" xml:space="preserve">
<style type="text/css">
	.st0{fill:#FFFFFF;}
</style>
<g>
	<path class="st0" d="M327.1,0H90.2C74.3,0,61.4,13,61.4,28.9v412.9c0,15.9,13,28.9,28.9,28.9h290.1c15.9,0,28.9-12.9,28.9-28.9
		V89.2L327.1,0z M333.9,43.2l36,39.1h-36V43.2z M385,441.7c0,2.5-2.1,4.6-4.6,4.6H90.2c-2.6,0-4.6-2.1-4.6-4.6V28.9
		c0-2.5,2.1-4.6,4.6-4.6h219.4v70.2c0,6.7,5.4,12.1,12.1,12.1H385V441.7z M128.4,128.9h205.8c5,0,9.1,4.1,9.1,9.1s-4.1,9.1-9.1,9.1
		H128.4c-5,0-9.1-4.1-9.1-9.1C119.3,133,123.4,128.9,128.4,128.9z M343.2,199c0,5-4.1,9.1-9.1,9.1H128.4c-5,0-9.1-4.1-9.1-9.1
		s4.1-9.1,9.1-9.1h205.8C339.2,189.9,343.2,194,343.2,199z M343.2,258c0,5-4.1,9.1-9.1,9.1H128.4c-5,0-9.1-4.1-9.1-9.1
		s4.1-9.1,9.1-9.1h205.8C339.2,248.9,343.2,253,343.2,258z M343.2,318c0,5-4.1,9.1-9.1,9.1H128.4c-5,0-9.1-4.1-9.1-9.1
		s4.1-9.1,9.1-9.1h205.8C339.2,308.9,343.2,313,343.2,318z"/>
</g>
</svg>
